SplineFontDB: 3.2
FontName: ExploreSans
FullName: Explore Sans Bold
FamilyName: Explore Sans
Weight: Bold
Copyright: Copyright (c) 2024, Bastien
UComments: "2024-12-25: Created with FontForge (http://fontforge.org)"
Version: 001.000
ItalicAngle: 0
UnderlinePosition: -102
UnderlineWidth: 51
Ascent: 800
Descent: 224
InvalidEm: 0
LayerCount: 2
Layer: 0 0 "Arri+AOgA-re" 1
Layer: 1 0 "Avant" 0
XUID: [1021 760 1580941675 4706664]
FSType: 0
OS2Version: 0
OS2_WeightWidthSlopeOnly: 0
OS2_UseTypoMetrics: 1
CreationTime: 1735138560
ModificationTime: 1745911730
PfmFamily: 33
TTFWeight: 700
TTFWidth: 5
LineGap: 192
VLineGap: 0
OS2TypoAscent: 800
OS2TypoAOffset: 0
OS2TypoDescent: -224
OS2TypoDOffset: 0
OS2TypoLinegap: 192
OS2WinAscent: 800
OS2WinAOffset: 0
OS2WinDescent: 224
OS2WinDOffset: 0
HheadAscent: 800
HheadAOffset: 0
HheadDescent: 224
HheadDOffset: 0
OS2FamilyClass: 2049
OS2Vendor: 'PfEd'
Lookup: 258 0 0 "ExploreSans-Kerning Latin" { "ExploreSans-Kerning Latin-1" [153,0,4] } ['kern' ('DFLT' <'dflt' > 'latn' <'dflt' > ) ]
MarkAttachClasses: 1
DEI: 91125
KernClass2: 37 35 "ExploreSans-Kerning Latin-1"
 50 A Agrave Aacute Acircumflex Atilde Adieresis Aring
 10 C Ccedilla
 1 D
 1 F
 1 G
 1 J
 1 K
 1 L
 46 O Q Ograve Oacute Ocircumflex Otilde Odieresis
 1 P
 1 R
 1 S
 1 T
 37 U Ugrave Uacute Ucircumflex Udieresis
 1 V
 1 W
 1 X
 8 Y Yacute
 50 a agrave aacute acircumflex atilde adieresis aring
 3 b p
 10 c ccedilla
 40 e ae egrave eacute ecircumflex edieresis
 1 f
 1 g
 46 i igrave iacute icircumflex idieresis dotlessi
 1 j
 1 k
 1 l
 49 ograve oacute ocircumflex otilde odieresis oslash
 1 r
 1 s
 1 t
 1 v
 1 w
 1 x
 18 y yacute ydieresis
 50 A Agrave Aacute Acircumflex Atilde Adieresis Aring
 10 C Ccedilla
 1 D
 1 G
 1 J
 1 K
 1 L
 46 O Q Ograve Oacute Ocircumflex Otilde Odieresis
 1 R
 1 S
 1 T
 1 V
 1 W
 1 X
 8 Y Yacute
 53 a agrave aacute acircumflex atilde adieresis aring ae
 10 c ccedilla
 3 d q
 37 e egrave eacute ecircumflex edieresis
 1 f
 1 g

StartChar: A
Encoding: 65 65 0
Width: 631
VWidth: 1048
Flags: HW
HStem: 0 21G<0 138.337 493.342 631> 153 104<131 472> 594 69<294 361> 687 20G<243.9 411.393>
VStem: 294 67<594 663>
AnchorPoint: "AccentCenter" 327 880 basechar 0
LayerCount: 2
Fore
SplineSet
294 663 m 1
 361 663 l 1
 361 594 l 1
 294 594 l 1
 294 663 l 1
131 257 m 1
 472 257 l 1
 472 153 l 1
 131 153 l 1
 131 257 l 1
405 707 m 1
 631 0 l 1
 499 0 l 1
 299 707 l 1
 405 707 l 1
251 707 m 1
 356 707 l 1
 132 0 l 1
 0 0 l 1
 251 707 l 1
EndSplineSet
Validated: 5
Colour: ff0000
EndChar

StartChar: B
Encoding: 66 66 1
Width: 633
VWidth: 1048
Flags: HW
HStem: 0 108<195 426.644> 321 100<195 401.538> 599 108<195 403.212>
VStem: 67 128<108 321 421 599> 431 128<449.141 571.234> 462 128<142.345 287.611>
LayerCount: 2
Fore
SplineSet
195 599 m 1xf8
 195 421 l 1
 329 421 l 2
 390 421 431 450 431 512 c 0
 431 575 387 599 327 599 c 2
 195 599 l 1xf8
195 321 m 1
 195 108 l 1
 345 108 l 2
 412 108 462 134 462 212 c 0xf4
 462 293 421 321 340 321 c 2
 195 321 l 1
67 0 m 1
 67 707 l 1
 343 707 l 2
 467 707 559 642 559 531 c 0xf8
 559 436 510 388 452 371 c 1
 535 354 590 310 590 196 c 0
 590 56 479 0 363 0 c 2
 67 0 l 1
EndSplineSet
Validated: 1
EndChar

StartChar: C
Encoding: 67 67 2
Width: 622
VWidth: 1048
Flags: HW
HStem: -8 100<264.321 460.132> 615 100<275.589 459.848>
VStem: 40 128<208.102 487.905>
LayerCount: 2
Fore
SplineSet
363 715 m 1
 450 715 537 677 590 596 c 1
 526 536 l 5
 497 579 439 615 371 615 c 5
 251 615 168 535 168 353 c 1
 168 167 239 92 359 92 c 1
 427 92 476 113 528 166 c 1
 590 98 l 1
 532 40 446 -8 349 -8 c 1
 152 -8 40 132 40 353 c 1
 40 577 166 715 363 715 c 1
EndSplineSet
Validated: 1
EndChar

StartChar: D
Encoding: 68 68 3
Width: 628
VWidth: 1048
Flags: HW
HStem: 0 108<174 355.409> 599 108<174 358.41>
VStem: 458 128<227.318 486.097>
LayerCount: 2
Fore
SplineSet
174 707 m 1
 266 707 l 1
 480 707 586 566 586 361 c 0
 586 138 479 0 262 0 c 1
 174 0 l 1
 174 108 l 1
 256 108 l 1
 365 108 458 166 458 361 c 0
 458 544 364 599 258 599 c 1
 174 599 l 1
 174 707 l 1
46 707 m 1
 174 707 l 1
 174 0 l 1
 46 0 l 1
 46 707 l 1
EndSplineSet
Validated: 5
EndChar

StartChar: E
Encoding: 69 69 4
Width: 554
VWidth: 1048
Flags: HW
HStem: 0 108<184 514> 308 116<184 456> 599 108<184 514>
AnchorPoint: "AccentCenter" 315 880 basechar 0
LayerCount: 2
Fore
SplineSet
184 424 m 5
 456 424 l 5
 456 308 l 5
 184 308 l 5
 184 424 l 5
184 108 m 1
 514 108 l 1
 514 0 l 1
 184 0 l 1
 184 108 l 1
184 707 m 1
 514 707 l 1
 514 599 l 1
 184 599 l 1
 184 707 l 1
56 707 m 1
 184 707 l 1
 184 0 l 1
 56 0 l 1
 56 707 l 1
EndSplineSet
Validated: 5
EndChar

StartChar: F
Encoding: 70 70 5
Width: 554
VWidth: 1048
Flags: HW
HStem: 0 21G<68 196> 307 116<196 448> 599 108<196 526>
VStem: 68 128<0 307 423 599>
LayerCount: 2
Fore
SplineSet
196 423 m 1
 448 423 l 1
 448 307 l 5
 196 307 l 5
 196 423 l 1
196 707 m 1
 526 707 l 1
 526 599 l 1
 196 599 l 1
 196 707 l 1
68 707 m 1
 196 707 l 1
 196 0 l 1
 68 0 l 1
 68 707 l 1
EndSplineSet
Validated: 5
Colour: ff0000
EndChar

StartChar: G
Encoding: 71 71 6
Width: 660
VWidth: 1048
Flags: HW
HStem: -8 100<264.321 449.532> 302 100<335 484> 615 100<275.589 459.848>
VStem: 40 128<208.102 487.905> 484 128<126 302>
LayerCount: 2
Fore
SplineSet
363 715 m 1
 450 715 537 677 590 596 c 1
 526 536 l 1
 497 579 439 615 371 615 c 1
 251 615 168 535 168 353 c 1
 168 167 239 92 359 92 c 1
 427 92 470 113 508 176 c 5
 612 118 l 1
 542 30 446 -8 349 -8 c 1
 152 -8 40 132 40 353 c 1
 40 577 166 715 363 715 c 1
484 126 m 1
 484 302 l 1
 335 302 l 1
 335 402 l 1
 612 402 l 1
 612 118 l 1
 574 118 537 126 499 126 c 1
 484 126 l 1
EndSplineSet
Validated: 5
EndChar

StartChar: H
Encoding: 72 72 7
Width: 627
VWidth: 1048
Flags: HW
HStem: 0 21G<54 182 445 573> 309 116<182 445> 687 20G<54 182 445 573>
VStem: 54 128<0 309 425 707> 445 128<0 707>
LayerCount: 2
Fore
SplineSet
182 425 m 1
 445 425 l 5
 445 309 l 5
 182 309 l 1
 182 425 l 1
445 707 m 5
 573 707 l 5
 573 0 l 5
 445 0 l 5
 445 707 l 5
54 707 m 1
 182 707 l 1
 182 0 l 1
 54 0 l 1
 54 707 l 1
EndSplineSet
Validated: 5
EndChar

StartChar: I
Encoding: 73 73 8
Width: 248
VWidth: 1048
Flags: HW
HStem: 0 21G<60 188> 687 20G<60 188>
VStem: 60 128<0 707>
AnchorPoint: "AccentCenter" 122 880 basechar 0
LayerCount: 2
Fore
SplineSet
60 707 m 1
 188 707 l 1
 188 0 l 1
 60 0 l 1
 60 707 l 1
EndSplineSet
Validated: 1
EndChar

StartChar: J
Encoding: 74 74 9
Width: 479
VWidth: 1048
Flags: HW
HStem: -8 108<104.65 264.596> 687 20G<308 436>
VStem: 308 128<145.734 707>
LayerCount: 2
Fore
SplineSet
436 707 m 1
 436 226 l 1
 436 68 319 -8 194 -8 c 1
 93 -8 38 23 -8 83 c 1
 66 161 l 5
 97 118 128 100 198 100 c 3
 260 100 308 140 308 223 c 1
 308 707 l 1
 436 707 l 1
EndSplineSet
Validated: 1
EndChar

StartChar: K
Encoding: 75 75 10
Width: 587
VWidth: 1048
Flags: HW
HStem: 0 21G<40 170 404.641 590> 687 20G<40 170 403.884 588>
VStem: 40 130<0 707>
LayerCount: 2
Fore
SplineSet
590 0 m 1
 420 0 l 1
 142 362 l 1
 258 401 l 1
 590 0 l 1
258 319 m 1
 142 362 l 1
 420 707 l 1
 588 707 l 1
 258 319 l 1
40 707 m 1
 170 707 l 1
 170 0 l 1
 40 0 l 1
 40 707 l 1
EndSplineSet
Validated: 5
Colour: ff0000
EndChar

StartChar: L
Encoding: 76 76 11
Width: 518
VWidth: 1048
Flags: HW
HStem: 0 108<176 502> 687 20G<48 176>
VStem: 48 128<108 707>
LayerCount: 2
Fore
SplineSet
176 108 m 5
 502 108 l 5
 502 0 l 1
 176 0 l 1
 176 108 l 5
48 707 m 1
 176 707 l 1
 176 0 l 1
 48 0 l 1
 48 707 l 1
EndSplineSet
Validated: 5
EndChar

StartChar: M
Encoding: 77 77 12
Width: 741
VWidth: 1048
Flags: HW
HStem: 0 21G<52 180 561 689> 687 20G<52 216.167 525.123 689>
VStem: 52 128<0 578> 561 128<0 578>
LayerCount: 2
Fore
SplineSet
568 707 m 17
 600 578 l 1
 446 156 l 1
 316 156 l 1
 533 707 l 1
 568 707 l 17
174 707 m 25
 208 707 l 1
 433 156 l 5
 304 156 l 1
 142 578 l 1
 174 707 l 25
561 707 m 1
 689 707 l 1
 689 0 l 1
 561 0 l 1
 561 707 l 1
52 707 m 1
 180 707 l 1
 180 0 l 1
 52 0 l 1
 52 707 l 1
EndSplineSet
Validated: 5
EndChar

StartChar: N
Encoding: 78 78 13
Width: 667
VWidth: 1048
Flags: HW
HStem: 0 21G<58 186 459.39 609> 687 20G<58 207.767 481 609>
VStem: 58 128<0 503> 179 7<503 707> 481 128<209 707> 481 8<0 209>
LayerCount: 2
Fore
SplineSet
179 707 m 1xd4
 196 707 l 1
 489 209 l 5
 489 0 l 5
 471 0 l 5
 179 503 l 1
 179 707 l 1xd4
481 707 m 5xc8
 609 707 l 5
 609 0 l 5xc8
 481 0 l 5xc4
 481 707 l 5xc8
58 707 m 1xe0
 186 707 l 1xd0
 186 0 l 1
 58 0 l 1
 58 707 l 1xe0
EndSplineSet
Validated: 5
EndChar

StartChar: O
Encoding: 79 79 14
Width: 678
VWidth: 1048
Flags: HW
HStem: -8 100<261.291 420.61> 615 100<258.179 419.546>
VStem: 40 128<207.396 500.593> 510 128<206.566 499.687>
AnchorPoint: "AccentCenter" 344 868 basechar 0
LayerCount: 2
Fore
SplineSet
168 354 m 0
 168 191 226 92 340 92 c 4
 456 92 510 193 510 354 c 0
 510 514 456 615 340 615 c 0
 225 615 168 517 168 354 c 0
40 354 m 0
 40 582 151 715 344 715 c 0
 536 715 638 583 638 352 c 0
 638 123 530 -8 338 -8 c 0
 144 -8 40 127 40 354 c 0
EndSplineSet
Validated: 1
EndChar

StartChar: P
Encoding: 80 80 15
Width: 605
VWidth: 1048
Flags: HW
HStem: 0 21G<54 182> 239 108<182 396.726> 599 108<182 396.407>
VStem: 54 128<0 239 347 599> 448 128<396.671 548.717>
LayerCount: 2
Fore
SplineSet
182 707 m 1
 182 707 270 707 344 707 c 0
 475 707 576 610 576 479 c 0
 576 334 463 239 320 239 c 1
 182 239 l 1
 182 347 l 1
 318 347 l 1
 406 347 448 399 448 475 c 0
 448 548 396 599 320 599 c 1
 182 599 l 1
 182 707 l 1
54 707 m 1
 182 707 l 1
 182 0 l 1
 54 0 l 1
 54 707 l 1
EndSplineSet
Validated: 5
Colour: ff0000
EndChar

StartChar: Q
Encoding: 81 81 16
Width: 662
VWidth: 1048
Flags: HW
HStem: -184 100<424.894 562> -8 8<272 394> 615 100<250.179 411.546>
VStem: 32 128<207.776 500.587> 502 128<206.953 499.713>
AnchorPoint: "AccentCenter" 332 880 basechar 0
LayerCount: 2
Fore
SplineSet
160 354 m 0
 160 191 218 96 332 96 c 0
 448 96 502 193 502 354 c 0
 502 514 448 615 332 615 c 0
 217 615 160 517 160 354 c 0
32 354 m 0
 32 562 143 715 336 715 c 0
 528 715 630 563 630 352 c 0
 630 142 522 -8 330 -8 c 0
 136 -8 32 146 32 354 c 0
394 0 m 1
 394 0 398 -84 490 -84 c 4
 562 -84 l 5
 580 -166 l 1
 580 -166 534 -184 476 -184 c 0
 346 -184 272 -110 272 0 c 1
 394 0 l 1
EndSplineSet
Validated: 5
EndChar

StartChar: R
Encoding: 82 82 17
Width: 607
VWidth: 1048
Flags: HW
HStem: 0 21G<53 181 430.512 584> 278 108<181 276 325 405.362> 278 11<276 404> 599 108<181 402.348>
VStem: 53 128<0 707> 439 128<419.275 564.123>
LayerCount: 2
Fore
SplineSet
53 707 m 1x9c
 181 707 l 1
 181 0 l 1
 53 0 l 1
 53 707 l 1x9c
181 707 m 1
 181 707 270 707 344 707 c 0
 475 707 567 628 567 495 c 0
 567 345 468 278 325 278 c 1
 181 278 l 1
 181 386 l 1
 334 386 l 1xdc
 403 386 439 424 439 495 c 0
 439 560 398 599 330 599 c 1
 181 599 l 1
 181 707 l 1
276 289 m 5xbc
 404 295 l 1
 584 0 l 1
 442 0 l 5
 276 289 l 5xbc
EndSplineSet
Validated: 5
Colour: ff0000
EndChar

StartChar: S
Encoding: 83 83 18
Width: 594
VWidth: 1048
Flags: HW
HStem: -8 100<191.232 383.127> 615 100<216.916 405.937>
VStem: 52 124<464.594 577.143> 422 128<129.284 252.762>
LayerCount: 2
Fore
SplineSet
308 715 m 1
 409 715 492 675 543 598 c 1
 473 537 l 1
 430 594 373 615 310 615 c 1
 224 615 176 579 176 522 c 1
 176 468 220 434 293 419 c 1
 332 410 l 0
 462 383 550 315 550 195 c 1
 550 72 441 -8 276 -8 c 1
 166 -8 70 44 20 129 c 1
 107 195 l 1
 144 134 201 92 290 92 c 1
 382 92 422 130 422 195 c 1
 419 257 371 290 286 307 c 1
 248 315 l 0
 132 337 53 402 52 514 c 1
 52 631 148 715 308 715 c 1
EndSplineSet
Validated: 1
EndChar

StartChar: T
Encoding: 84 84 19
Width: 611
VWidth: 1048
Flags: HW
HStem: 0 21G<241 369> 595 112<36 241 369 575>
VStem: 241 128<0 595>
LayerCount: 2
Fore
SplineSet
36 707 m 1
 575 707 l 1
 575 595 l 5
 36 595 l 5
 36 707 l 1
241 595 m 5
 369 595 l 5
 369 0 l 1
 241 0 l 1
 241 595 l 5
EndSplineSet
Validated: 5
Colour: ff0000
EndChar

StartChar: U
Encoding: 85 85 20
Width: 627
VWidth: 1048
Flags: HW
HStem: -8 104<236.84 390.107> 687 20G<56 184 443 571>
VStem: 56 128<155.266 707> 443 128<154.422 707>
AnchorPoint: "AccentCenter" 316 880 basechar 0
LayerCount: 2
Fore
SplineSet
56 707 m 1
 184 707 l 1
 184 259 l 1
 184 145 228 96 314 96 c 0
 394 96 443 145 443 259 c 1
 443 707 l 1
 571 707 l 1
 571 265 l 1
 571 104 479 -8 310 -8 c 0
 146 -8 56 104 56 267 c 1
 56 707 l 1
EndSplineSet
Validated: 1
EndChar

StartChar: V
Encoding: 86 86 21
Width: 655
VWidth: 1048
Flags: HW
HStem: 0 21G<245.267 408.761> 687 20G<14 157.393 497.55 641>
LayerCount: 2
Fore
SplineSet
276 0 m 1
 504 707 l 1
 641 707 l 5
 402 0 l 5
 276 0 l 1
14 707 m 1
 151 707 l 5
 377 0 l 5
 252 0 l 1
 14 707 l 1
EndSplineSet
Validated: 5
Colour: ff0000
EndChar

StartChar: W
Encoding: 87 87 22
Width: 812
VWidth: 1048
Flags: HW
HStem: 0 21G<142.389 317.498 498.615 669.611> 687 20G<-16 125.819 335.955 483.819 686.181 828>
LayerCount: 2
Fore
SplineSet
615 0 m 1
 503 0 l 1
 348 707 l 5
 480 707 l 5
 615 0 l 1
828 707 m 1
 665 0 l 1
 555 0 l 1
 690 707 l 1
 828 707 l 1
197 0 m 1
 340 707 l 5
 472 707 l 5
 313 0 l 1
 197 0 l 1
-16 707 m 1
 122 707 l 1
 257 0 l 1
 147 0 l 1
 -16 707 l 1
EndSplineSet
Validated: 5
Colour: ff0000
EndChar

StartChar: X
Encoding: 88 88 23
Width: 660
VWidth: 1048
Flags: HW
HStem: 0 21G<35 193.131 465.787 625> 687 20G<35 193.231 465.686 625>
LayerCount: 2
Fore
SplineSet
35 707 m 1
 181 707 l 1
 329 465 l 1
 478 707 l 1
 625 707 l 1
 396 354 l 1
 625 0 l 1
 478 0 l 1
 329 244 l 1
 181 0 l 1
 35 0 l 1
 258 354 l 5
 35 707 l 1
EndSplineSet
Validated: 1
EndChar

StartChar: Y
Encoding: 89 89 24
Width: 602
VWidth: 1048
Flags: HW
HStem: 0 21G<240 368> 687 20G<0 152.138 450 602>
VStem: 240 128<0 275>
AnchorPoint: "AccentCenter" 272 880 basechar 0
LayerCount: 2
Fore
SplineSet
240 275 m 1
 368 275 l 1
 368 0 l 1
 240 0 l 1
 240 275 l 1
244 275 m 1
 460 707 l 1
 602 707 l 1
 362 263 l 1
 244 275 l 1
0 707 m 5
 142 707 l 5
 362 273 l 1
 244 263 l 1
 0 707 l 5
EndSplineSet
Validated: 5
Colour: ff0000
EndChar

StartChar: Z
Encoding: 90 90 25
Width: 603
VWidth: 1048
Flags: HW
HStem: 0 104<200 545> 603 104<58 545>
LayerCount: 2
Fore
SplineSet
403 603 m 1
 545 603 l 1
 200 104 l 5
 58 104 l 5
 403 603 l 1
58 104 m 5
 545 104 l 5
 545 0 l 1
 58 0 l 1
 58 104 l 5
58 707 m 1
 545 707 l 1
 545 603 l 1
 58 603 l 1
 58 707 l 1
EndSplineSet
Validated: 5
EndChar

StartChar: bracketleft
Encoding: 91 91 26
Width: 448
VWidth: 1048
Flags: HW
HStem: -66 104<205 347> 715 104<205 347>
VStem: 77 270<-66 38 715 819>
LayerCount: 2
Fore
SplineSet
205 715 m 1
 205 819 l 1
 347 819 l 1
 347 715 l 1
 205 715 l 1
205 -66 m 5
 205 38 l 1
 347 38 l 1
 347 -66 l 1
 205 -66 l 5
77 819 m 1
 205 819 l 1
 205 -66 l 1
 77 -66 l 1
 77 819 l 1
EndSplineSet
Validated: 5
EndChar

StartChar: backslash
Encoding: 92 92 27
Width: 474
VWidth: 1048
Flags: HW
HStem: 748 20G<1 141.493>
LayerCount: 2
Fore
SplineSet
474 -35 m 1
 342 -35 l 1
 1 768 l 1
 133 768 l 1
 474 -35 l 1
EndSplineSet
Validated: 1
EndChar

StartChar: bracketright
Encoding: 93 93 28
Width: 449
VWidth: 1048
Flags: HW
HStem: -66 104<77 220> 715 104<77 220>
VStem: 77 143<-66 38 715 819> 220 128<-66 819>
LayerCount: 2
Fore
SplineSet
220 715 m 5xe0
 77 715 l 5
 77 819 l 1
 220 819 l 1
 220 715 l 5xe0
220 -66 m 1
 77 -66 l 1
 77 38 l 1
 220 38 l 1
 220 -66 l 1
348 819 m 1xd0
 348 -66 l 1xd0
 220 -66 l 1
 220 819 l 1xe0
 348 819 l 1xd0
EndSplineSet
Validated: 5
EndChar

StartChar: asciicircum
Encoding: 94 94 29
Width: 505
VWidth: 1048
Flags: HW
HStem: 667 185
VStem: 77 327
LayerCount: 2
Fore
SplineSet
77 716 m 25
 208 852 l 1
 273 852 l 25
 404 716 l 25
 364 667 l 25
 241 786 l 25
 118 667 l 25
 77 716 l 25
EndSplineSet
Validated: 1
EndChar

StartChar: underscore
Encoding: 95 95 30
Width: 579
VWidth: 1048
Flags: HW
HStem: -108 108<95 496>
LayerCount: 2
Fore
SplineSet
95 0 m 1
 496 0 l 1
 496 -108 l 5
 95 -108 l 5
 95 0 l 1
EndSplineSet
Validated: 1
EndChar

StartChar: grave
Encoding: 96 96 31
Width: 334
VWidth: 1048
Flags: HW
HStem: 527 241
VStem: 32 267
LayerCount: 2
Fore
SplineSet
174 768 m 1
 299 527 l 1
 188 527 l 1
 32 768 l 1
 174 768 l 1
EndSplineSet
Validated: 1
EndChar

StartChar: a
Encoding: 97 97 32
Width: 542
Flags: HW
HStem: -7 100<193.478 293.868> 223 90<193.27 350> 424 104<169.934 315.988>
VStem: 48 128<111.726 208.599> 350 128<117.265 223 313 388.933> 358 120<0 54.4768>
AnchorPoint: "AccentCenter" 276 686 basechar 0
AnchorPoint: "Ring" 280 686 basechar 0
LayerCount: 2
Fore
SplineSet
176 162 m 0xf8
 176 125 198 93 252 93 c 0
 301 93 334 112 350 149 c 1
 350 223 l 1
 254 223 l 2
 206 223 176 205 176 162 c 0xf8
348 76 m 1
 332 36 282 -7 218 -7 c 0
 114 -7 48 51 48 154 c 0
 48 259 115 313 244 313 c 2
 350 313 l 1
 350 326 l 2xf8
 350 384 313 424 254 424 c 0
 197 424 168 408 142 376 c 1
 68 438 l 1
 114 500 173 528 262 528 c 0
 393 528 478 455 478 309 c 2xf4
 478 167 l 1xf8
 478 0 l 1
 358 0 l 1xf4
 348 76 l 1
EndSplineSet
Validated: 1
EndChar

StartChar: b
Encoding: 98 98 33
Width: 600
VWidth: 1048
Flags: HW
HStem: -8 100<240.305 374.025> 0 21G<64 179.596> 427 100<245.653 373.578> 695 20G<64 192>
VStem: 64 128<49.128 89 181 715> 156 36<63 181> 182 10<313 474> 424 128<146.883 374.705>
LayerCount: 2
Fore
SplineSet
64 715 m 1x79
 192 715 l 1
 192 89 l 1
 176 0 l 1
 64 0 l 1
 64 715 l 1x79
182 369 m 5xb3
 182 474 241 527 334 527 c 4
 474 527 552 437 552 255 c 4
 552 82 457 -8 334 -8 c 4
 221 -8 161 63 156 181 c 5xb5
 184 220 l 5
 196 150 221 92 308 92 c 4
 387 92 424 152 424 259 c 4
 424 367 391 427 304 427 c 4
 227 427 193 370 182 313 c 5
 182 369 l 5xb3
EndSplineSet
Validated: 5
EndChar

StartChar: c
Encoding: 99 99 34
Width: 520
VWidth: 1048
Flags: HW
HStem: -8 104<227.394 386.47> 423 104<234.445 386.47>
VStem: 48 128<151.789 358.701>
LayerCount: 2
Fore
SplineSet
48 259 m 0
 48 426 148 527 302 527 c 0
 365 527 439 508 496 433 c 0
 419 369 l 0
 386 412 352 423 306 423 c 0
 226 423 176 363 176 254 c 0
 176 142 226 96 306 96 c 0
 352 96 386 107 419 150 c 0
 496 86 l 0
 439 11 365 -8 302 -8 c 0
 148 -8 48 89 48 259 c 0
EndSplineSet
Validated: 1
EndChar

StartChar: d
Encoding: 100 100 35
Width: 600
VWidth: 1048
Flags: HW
HStem: -8 100<225.975 353.989> 427 100<226.422 353.716>
VStem: 48 128<146.883 374.705> 408 18<66 215.944 318.824 467> 418 8<150 215.944>
LayerCount: 2
Fore
SplineSet
536 715 m 5xe8
 408 715 l 5
 408 89 l 5xf0
 426 0 l 5
 536 0 l 5
 536 715 l 5xe8
424 369 m 5
 424 467 359 527 266 527 c 4
 126 527 48 437 48 255 c 0
 48 82 143 -8 266 -8 c 4
 379 -8 426 66 426 181 c 5xf0
 418 220 l 5
 406 150 379 92 292 92 c 4
 213 92 176 152 176 259 c 0
 176 367 209 427 296 427 c 4
 373 427 407 370 418 313 c 5xe8
 424 369 l 5
EndSplineSet
Validated: 5
EndChar

StartChar: e
Encoding: 101 101 36
Width: 557
VWidth: 1048
Flags: HW
HStem: -8 100<222.933 365.615> 218 90<176 382> 423 104<212.872 349.429>
VStem: 48 128<143.031 218 308 382.542> 382 127<308 386.573>
AnchorPoint: "AccentCenter" 286 686 basechar 0
LayerCount: 2
Fore
SplineSet
284 423 m 1
 215 423 176 381 176 308 c 1
 382 308 l 1
 382 320 l 1
 382 383 347 423 284 423 c 1
288 527 m 0
 411 527 509 440 509 294 c 1
 509 267 505 235 498 218 c 1
 176 218 l 1
 176 144 218 92 294 92 c 0
 348 92 384 121 411 161 c 1
 489 104 l 5
 446 34 371 -8 284 -8 c 4
 135 -8 48 81 48 261 c 0
 48 436 144 527 288 527 c 0
EndSplineSet
Validated: 1
EndChar

StartChar: f
Encoding: 102 102 37
Width: 400
VWidth: 1048
Flags: HW
HStem: 0 21G<124 252> 423 96<32 368> 632 100<259.953 366>
VStem: 124 128<0 621.102>
LayerCount: 2
Fore
SplineSet
316 632 m 1
 269 632 252 620 252 565 c 1
 252 0 l 1
 124 0 l 1
 124 540 l 1
 124 672 193 732 312 732 c 1
 340 732 365 729 380 725 c 1
 366 632 l 1
 316 632 l 1
32 519 m 1
 124 519 l 1
 368 519 l 1
 368 423 l 1
 32 423 l 1
 32 519 l 1
EndSplineSet
Validated: 5
EndChar

StartChar: g
Encoding: 103 103 38
Width: 558
VWidth: 1048
Flags: HW
HStem: -192 96<155.04 387.24> 0 108<202.161 412.975> 182 62<169 242> 415 104<346 542> 435 92<181.881 303.95>
VStem: 32 128<291.926 412.812> 32 112<-80.8875 -3.11951> 54 111<111.685 167.779> 328 124<292.63 411.282> 416 126<-68.1757 -4.42874>
LayerCount: 2
Fore
SplineSet
264 183 m 1xe1
 188 177 165 162 165 140 c 0
 165 122 178 108 206 108 c 0
 192 43 l 0
 90 43 54 81 54 134 c 0
 54 204 169 244 242 244 c 1
 264 183 l 1xe1
372 0 m 1
 170 0 l 1
 154 -12 144 -29 144 -51 c 1
 144 -81 183 -96 278 -96 c 0
 361 -96 407 -74 414 -41 c 0
 415 -38 416 -36 416 -33 c 1xe240
 416 -12 397 0 372 0 c 1
364 108 m 1
 463 108 542 70 542 -17 c 1
 542 -24 541 -31 540 -38 c 0
 525 -129 417 -192 262 -192 c 0
 107 -192 32 -153 32 -60 c 1
 32 10 100 49 146 61 c 1
 206 108 l 1
 364 108 l 1
160 352 m 0xec80
 160 299 188 271 242 271 c 0
 297 271 328 299 328 350 c 0
 328 402 297 435 242 435 c 0
 189 435 160 404 160 352 c 0xec80
32 357 m 0
 32 461 109 527 240 527 c 0
 373 527 452 459 452 357 c 0
 452 253 370 182 240 182 c 0
 111 182 32 252 32 357 c 0
302 519 m 1xf040
 542 519 l 1
 542 415 l 1
 346 415 l 1
 302 519 l 1xf040
EndSplineSet
Validated: 5
Colour: ff0000
EndChar

StartChar: h
Encoding: 104 104 39
Width: 565
VWidth: 1048
Flags: HW
HStem: 0 21G<52 180 385 513> 419 108<240.367 346.64> 687 20G<52 180>
VStem: 52 128<0 707> 171 9<306 306 378 430> 385 128<0 379.801>
LayerCount: 2
Fore
SplineSet
171 378 m 5xec
 171 430 203 527 329 527 c 4
 444 527 513 448 513 317 c 5
 513 0 l 5
 385 0 l 5
 385 303 l 6
 385 372 351 419 280 419 c 4
 215 419 172 375 172 306 c 5
 171 378 l 5xec
52 707 m 5xf4
 180 707 l 5
 180 0 l 5
 52 0 l 5
 52 707 l 5xf4
EndSplineSet
Validated: 5
EndChar

StartChar: i
Encoding: 105 105 40
Width: 313
VWidth: 1048
Flags: HW
HStem: 0 21G<119 247> 423 96<21 119> 601 138<133.092 232.908>
VStem: 119 128<0 423 615.75 724.25>
LayerCount: 2
Fore
SplineSet
114 670 m 0
 114 708 145 739 183 739 c 0
 221 739 252 708 252 670 c 0
 252 632 221 601 183 601 c 0
 145 601 114 632 114 670 c 0
247 519 m 5
 247 0 l 1
 119 0 l 1
 119 423 l 1
 21 423 l 1
 21 519 l 1
 119 519 l 1
 247 519 l 5
EndSplineSet
Validated: 1
EndChar

StartChar: j
Encoding: 106 106 41
Width: 264
VWidth: 1048
Flags: HW
HStem: -192 104<0 54.7183> 499 20G<67 195> 601 138<81.0921 180.908>
VStem: 67 128<-76.7367 519 615.75 724.25>
LayerCount: 2
Fore
SplineSet
62 670 m 0
 62 708 93 739 131 739 c 0
 169 739 200 708 200 670 c 0
 200 632 169 601 131 601 c 0
 93 601 62 632 62 670 c 0
0 -88 m 1
 46 -88 67 -69 67 -19 c 1
 67 519 l 1
 195 519 l 1
 195 -29 l 1
 193 -140 126 -192 0 -192 c 1
 0 -88 l 1
EndSplineSet
Validated: 1
Colour: ff0000
EndChar

StartChar: k
Encoding: 107 107 42
Width: 542
VWidth: 1048
Flags: HW
HStem: 0 21G<64 192 360.145 542> 499 20G<347.115 528>
VStem: 64 128<0 724>
LayerCount: 2
Fore
SplineSet
298 275 m 5
 542 0 l 5
 376 0 l 5
 158 275 l 5
 298 275 l 5
158 275 m 5
 364 519 l 5
 528 519 l 5
 298 275 l 5
 158 275 l 5
64 724 m 1
 192 724 l 1
 192 0 l 1
 64 0 l 1
 64 724 l 1
EndSplineSet
Validated: 5
Colour: ff0000
EndChar

StartChar: l
Encoding: 108 108 43
Width: 272
VWidth: 1048
Flags: HW
HStem: -8 100<179.439 262> 0 92<185.726 262> 748 20G<46 174>
VStem: 46 128<100.378 768>
LayerCount: 2
Fore
SplineSet
184 -8 m 1xb0
 77 -8 46 55 46 158 c 1
 46 768 l 1
 174 768 l 1
 174 142 l 1
 174 110 189 92 222 92 c 1
 262 92 l 1xb0
 272 0 l 1x70
 247 -6 221 -8 184 -8 c 1xb0
EndSplineSet
Validated: 1
EndChar

StartChar: m
Encoding: 109 109 44
Width: 844
VWidth: 1048
Flags: HW
HStem: 0 21G<56 184 364 492 668 796> 419 108<238.03 331.905 531.394 640.246> 499 20G<56 171.596>
VStem: 56 128<0 387 430 469.872> 176 8<337 454> 364 128<0 363.405> 668 128<0 387.242>
LayerCount: 2
Fore
SplineSet
456 396 m 1xc6
 456 465 526 527 626 527 c 1
 728 527 796 461 796 331 c 1
 796 0 l 1
 668 0 l 1
 668 322 l 1
 667 392 626 419 576 419 c 1
 526 419 496 401 476 351 c 1
 456 396 l 1xc6
176 387 m 1xce
 176 454 221 527 318 527 c 1
 408 527 453 477 480 384 c 1
 492 384 l 1
 492 0 l 1
 364 0 l 1
 364 311 l 1
 364 378 329 419 274 419 c 1
 224 419 186 399 176 337 c 1
 176 387 l 1xce
56 519 m 1xb6
 168 519 l 1
 184 430 l 1
 184 0 l 1
 56 0 l 1
 56 519 l 1xb6
EndSplineSet
Validated: 5
EndChar

StartChar: n
Encoding: 110 110 45
Width: 574
VWidth: 1048
Flags: HW
HStem: 0 21G<56 185 390 518> 427 100<245.665 349.303> 499 20G<56 177.597>
VStem: 56 119<463.806 519> 175 10<318 442> 390 128<0 384.359>
AnchorPoint: "AccentCenter" 322 686 basechar 0
LayerCount: 2
Fore
SplineSet
56 519 m 1xb4
 175 519 l 1xb4
 185 442 l 1
 185 0 l 1xac
 56 0 l 1
 56 519 l 1xb4
175 390 m 1xcc
 175 442 220 528 334 528 c 0
 449 528 518 448 518 317 c 1
 518 0 l 1
 390 0 l 1
 390 303 l 2
 390 372 355 428 284 428 c 0
 219 428 176 388 176 318 c 5
 175 390 l 1xcc
EndSplineSet
Validated: 5
EndChar

StartChar: o
Encoding: 111 111 46
Width: 596
VWidth: 1048
Flags: HW
HStem: -8 104<226.792 366.537> 423 104<230.626 365.447>
VStem: 48 128<151.002 362.014> 420 128<152.884 363.122>
AnchorPoint: "AccentCenter" 295 686 basechar 0
LayerCount: 2
Fore
SplineSet
176 254 m 4
 176 150 216 96 296 96 c 4
 378 96 420 153 420 258 c 4
 420 363 378 423 296 423 c 4
 217 423 176 359 176 254 c 4
48 259 m 4
 48 431 137 527 296 527 c 4
 452 527 548 428 548 261 c 4
 548 93 451 -8 296 -8 c 4
 142 -8 48 91 48 259 c 4
EndSplineSet
Validated: 1
EndChar

StartChar: p
Encoding: 112 112 47
Width: 600
VWidth: 1048
Flags: HW
HStem: -8 100<239.546 375.668> 427 100<253.054 375.193> 499 20G<64 179.596>
VStem: 64 128<-192 338 430 469.872> 174 18<46 186.176 317.845 446> 424 128<144.295 370.954>
LayerCount: 2
Fore
SplineSet
64 -192 m 1xb4
 64 519 l 1
 176 519 l 1
 192 430 l 1
 192 -192 l 1
 64 -192 l 1xb4
174 150 m 1xcc
 182 206 l 1
 193 149 227 92 304 92 c 0
 391 92 424 152 424 260 c 4
 424 367 387 427 308 427 c 0
 221 427 196 369 184 299 c 1
 172 338 l 1
 172 446 229 527 342 527 c 0
 465 527 552 447 552 264 c 4
 552 82 466 -8 326 -8 c 0
 233 -8 174 46 174 150 c 1xcc
EndSplineSet
Validated: 5
EndChar

StartChar: q
Encoding: 113 113 48
Width: 600
VWidth: 1048
Flags: HW
HStem: -8 100<225.174 360.147> 427 100<225.658 352.447> 499 20G<421.18 536>
VStem: 48 128<145.768 370.954> 408 128<-192 338 430 467.527> 408 19<52 177.563 338 456> 418 7<338 377>
LayerCount: 2
Fore
SplineSet
536 -192 m 5xb8
 408 -192 l 5
 408 430 l 5xb8
 425 519 l 5xb2
 536 519 l 5
 536 -192 l 5xb8
427 150 m 5xd4
 427 52 368 -8 275 -8 c 4
 135 -8 48 82 48 264 c 0
 48 447 136 527 259 527 c 4
 372 527 429 456 429 338 c 5
 417 307 l 5
 405 377 380 427 293 427 c 4
 214 427 176 367 176 260 c 0
 176 152 210 92 297 92 c 4
 374 92 407 141 418 198 c 5xd2
 427 150 l 5xd4
EndSplineSet
Validated: 5
EndChar

StartChar: r
Encoding: 114 114 49
Width: 367
VWidth: 1048
Flags: HW
HStem: 0 21G<62 190> 415 112<241.197 362> 499 20G<62 176.645>
VStem: 62 112<464.792 519> 177 13<321 452.208>
LayerCount: 2
Fore
SplineSet
322 527 m 1xd8
 344 527 340 527 362 527 c 5
 362 415 l 1
 313 415 l 1
 254 415 200 391 184 321 c 1
 177 378 l 1
 177 466 234 527 322 527 c 1xd8
62 519 m 1xb8
 174 519 l 1
 190 398 l 1
 190 0 l 1
 62 0 l 1
 62 519 l 1xb8
EndSplineSet
Validated: 5
Colour: ff0000
EndChar

StartChar: s
Encoding: 115 115 50
Width: 470
VWidth: 1048
Flags: HW
HStem: -8 96<143.041 303.37> 431 96<176.589 325.929>
VStem: 32 128<333.709 412.904> 318 129<104.085 188.14>
LayerCount: 2
Fore
SplineSet
230 527 m 1
 320 527 388 502 436 439 c 1
 360 378 l 1
 332 412 296 431 244 431 c 1
 196 431 160 407 160 374 c 1
 160 342 180 325 238 314 c 0
 286 306 l 1
 403 281 447 225 447 144 c 1
 447 54 363 -8 236 -8 c 5
 120 -8 66 26 24 82 c 1
 104 150 l 1
 129 106 175 88 230 88 c 1
 287 88 318 110 318 144 c 1
 318 175 300 199 244 209 c 1
 198 216 l 0
 80 236 33 294 32 374 c 1
 32 450 110 527 230 527 c 1
EndSplineSet
Validated: 1
EndChar

StartChar: t
Encoding: 116 116 51
Width: 420
VWidth: 1048
Flags: HW
HStem: -8 100<265.485 366> 3 89<293.726 366> 415 104<42 374>
VStem: 130 128<96.3892 635>
LayerCount: 2
Fore
SplineSet
292 -8 m 1xb0
 173 -8 130 55 130 158 c 5
 130 635 l 1
 258 686 l 1
 258 143 l 5
 258 102 269 92 310 92 c 1
 366 92 l 1xb0
 380 3 l 1x70
 355 -3 329 -8 292 -8 c 1xb0
42 415 m 1
 42 519 l 1
 374 519 l 1
 374 415 l 1
 42 415 l 1
EndSplineSet
Validated: 5
EndChar

StartChar: u
Encoding: 117 117 52
Width: 566
VWidth: 1048
Flags: HW
HStem: -7 100<215.195 313.986> 500 20G<52 180 386 514>
VStem: 52 128<128.942 520> 386 14<84 161> 394 6<143 218> 398 116<0 54.9547>
AnchorPoint: "AccentCenter" 288 686 basechar 0
LayerCount: 2
Fore
SplineSet
514 0 m 1xe4
 398 0 l 1xe4
 386 92 l 1
 386 520 l 5xf0
 514 520 l 5
 514 0 l 1xe4
400 161 m 1xf0
 400 84 337 -7 232 -7 c 0
 117 -7 52 71 52 202 c 1
 52 520 l 5
 180 520 l 5
 180 204 l 2
 180 131 217 93 286 93 c 0
 349 93 394 143 394 218 c 1xe8
 400 161 l 1xf0
EndSplineSet
Validated: 5
EndChar

StartChar: v
Encoding: 118 118 53
Width: 556
VWidth: 1048
Flags: HW
HStem: 0 21G<194.37 367.399> 499 20G<4 146.859 409.449 552>
LayerCount: 2
Fore
SplineSet
246 0 m 5
 416 519 l 1
 552 519 l 1
 360 0 l 1
 246 0 l 5
4 519 m 1
 140 519 l 1
 318 0 l 1
 202 0 l 1
 4 519 l 1
EndSplineSet
Validated: 5
Colour: ff0000
EndChar

StartChar: w
Encoding: 119 119 54
Width: 751
VWidth: 1048
Flags: HW
HStem: 0 21G<121.798 293.74 451.568 623.434> 499 20G<-8 117.74 297.106 454.586 631.952 759>
LayerCount: 2
Fore
SplineSet
569 0 m 1
 456 0 l 1
 341 519 l 1
 450 519 l 1
 569 0 l 1
759 519 m 1
 618 0 l 1
 506 0 l 1
 637 519 l 1
 759 519 l 1
175 0 m 1
 302 519 l 1
 412 519 l 1
 289 0 l 1
 175 0 l 1
-8 519 m 1
 113 519 l 1
 236 0 l 1
 127 0 l 1
 -8 519 l 1
EndSplineSet
Validated: 5
Colour: ff0000
EndChar

StartChar: x
Encoding: 120 120 55
Width: 516
VWidth: 1048
Flags: HW
HStem: 0 21G<-9 160.016 340.412 505> 499 20G<-9 159.86 340.14 505>
LayerCount: 2
Fore
SplineSet
-9 519 m 1
 149 519 l 1
 250 333 l 1
 351 519 l 5
 505 519 l 5
 333 260 l 5
 505 0 l 5
 351 0 l 5
 252 187 l 1
 149 0 l 1
 -9 0 l 1
 164 260 l 1
 -9 519 l 1
EndSplineSet
Validated: 1
Colour: ff0000
EndChar

StartChar: y
Encoding: 121 121 56
Width: 555
VWidth: 1048
Flags: HW
HStem: 499 20G<18 171 380.857 528>
AnchorPoint: "AccentCenter" 274 686 basechar 0
LayerCount: 2
Fore
SplineSet
112 -192 m 0
 216 58 l 1
 254 93 l 1
 254 104 l 1
 288 239 l 1
 388 519 l 1
 528 519 l 1
 238 -192 l 1
 112 -192 l 0
18 519 m 1
 164 519 l 1
 262 239 l 1
 292 89 l 1
 230 15 l 1
 18 519 l 1
EndSplineSet
Validated: 5
Colour: ff0000
EndChar

StartChar: z
Encoding: 122 122 57
Width: 518
VWidth: 1048
Flags: HW
HStem: 0 104<192 470> 415 104<50 464>
LayerCount: 2
Fore
SplineSet
320 415 m 5
 464 415 l 1
 192 104 l 1
 48 104 l 1
 320 415 l 5
48 104 m 1
 470 104 l 1
 470 0 l 1
 48 0 l 1
 48 104 l 1
50 519 m 1
 464 519 l 1
 464 415 l 1
 50 415 l 1
 50 519 l 1
EndSplineSet
Validated: 5
EndChar

StartChar: braceleft
Encoding: 123 123 58
Width: 400
VWidth: 1048
InSpiro: 1
Flags: HW
HStem: -66 100<274.797 352> 323 104<48 98.4491> 719 100<274.797 352>
VStem: 119 128<59.2259 302.438 443.799 692.867>
LayerCount: 2
Fore
SplineSet
119 620 m 0
 146 725 l 0
 225 794 l 0
 352 819 l 0
 352 719 l 0
 299 711 l 0
 261 683 l 0
 247 628 l 0
 247 513 l 0
 233 446 l 0
 199 402 l 0
 154 376 l 0
 199 353 l 0
 233 309 l 0
 247 239 l 0
 247 123 l 0
 261 68 l 0
 299 41 l 0
 352 34 l 0
 352 -66 l 0
 225 -44 l 0
 146 22 l 0
 119 131 l 0
 119 250 l 0
 110 286 l 0
 85 313 l 0
 48 323 l 0
 48 427 l 0
 85 435 l 0
 110 459 l 0
 119 498 l 0
 119 620 l 0
  Spiro
    119 620 v
    146 725 o
    225 794 o
    352 819 v
    352 719 v
    299 711 o
    261 683 o
    247 628 ]
    247 513 v
    233 446 o
    199 402 o
    154 376 v
    199 353 o
    233 309 o
    247 239 v
    247 123 v
    261 68 o
    299 41 o
    352 34 v
    352 -66 v
    225 -44 o
    146 22 o
    119 131 ]
    119 250 v
    110 286 o
    85 313 o
    48 323 v
    48 427 v
    85 435 o
    110 459 o
    119 498 v
    0 0 z
  EndSpiro
EndSplineSet
Validated: 1
EndChar

StartChar: bar
Encoding: 124 124 59
Width: 289
VWidth: 1048
Flags: HW
VStem: 77 128<-66 819>
LayerCount: 2
Fore
SplineSet
77 819 m 1
 205 819 l 1
 205 -66 l 1
 77 -66 l 1
 77 819 l 1
EndSplineSet
Validated: 1
EndChar

StartChar: braceright
Encoding: 125 125 60
Width: 400
VWidth: 1048
Flags: HW
HStem: -66 104<48 119.325> 326 104<305.414 352> 715 104<48 124.373>
VStem: 153 128<69.7034 306.608 453.529 683.781>
LayerCount: 2
Fore
SplineSet
281 133 m 1
 281 12 198 -66 48 -66 c 1
 48 38 l 1
 107 38 153 62 153 133 c 0
 153 240 l 1
 153 322 200 357 246 377 c 1
 200 391 153 430 153 514 c 1
 153 622 l 1
 153 693 107 715 48 715 c 1
 48 819 l 1
 198 819 281 753 281 622 c 0
 281 582 281 577 281 503 c 17
 281 465 320 430 352 430 c 9
 352 326 l 1
 319 326 281 301 281 255 c 9
 281 133 l 1
EndSplineSet
Validated: 1
EndChar

StartChar: asciitilde
Encoding: 126 126 61
Width: 669
VWidth: 1048
Flags: HW
HStem: 225 66<378.297 484.61> 321 65<179 294.228>
LayerCount: 2
Fore
SplineSet
77 265 m 5
 77 265 117 386 249 386 c 4
 324 386 368 291 439 291 c 4
 497 291 525 384 525 384 c 5
 585 343 l 29
 585 343 537 225 431 225 c 4
 348 225 302 321 237 321 c 4
 162 321 128 225 128 225 c 5
 77 265 l 5
EndSplineSet
Validated: 1
EndChar

StartChar: exclam
Encoding: 33 33 62
Width: 274
VWidth: 1048
Flags: HW
HStem: -8 146<85.5 188.5> 695 20G<65 209>
VStem: 64 146<13.5 116.5 516.404 715> 81 112<244 455.008>
LayerCount: 2
Fore
SplineSet
64 65 m 0xe0
 64 105 97 138 137 138 c 0
 177 138 210 105 210 65 c 0
 210 25 177 -8 137 -8 c 0
 97 -8 64 25 64 65 c 0xe0
65 715 m 1
 209 715 l 1
 193 244 l 5
 81 244 l 1xd0
 65 715 l 1
EndSplineSet
Validated: 1
EndChar

StartChar: quotedbl
Encoding: 34 34 63
Width: 423
VWidth: 1048
InSpiro: 1
Flags: HW
HStem: 527 241<70 154 269 353>
VStem: 70 84<527 634.968> 269 84<527 634.968>
LayerCount: 2
Fore
SplineSet
369 768 m 0
 353 527 l 0
 269 527 l 0
 253 768 l 0
 369 768 l 0
  Spiro
    369 768 v
    353 527 v
    269 527 v
    253 768 v
    0 0 z
  EndSpiro
170 768 m 0
 154 527 l 0
 70 527 l 0
 54 768 l 0
 170 768 l 0
  Spiro
    170 768 v
    154 527 v
    70 527 v
    54 768 v
    0 0 z
  EndSpiro
EndSplineSet
Validated: 1
EndChar

StartChar: numbersign
Encoding: 35 35 64
Width: 758
VWidth: 1048
Flags: HW
HStem: 0 21G<93 216.635 319 442.635> 193 104<77 657> 431 104<77 657>
LayerCount: 2
Fore
SplineSet
93 0 m 1
 297 724 l 1
 415 724 l 1
 211 0 l 1
 93 0 l 1
319 0 m 1
 523 724 l 1
 641 724 l 1
 437 0 l 1
 319 0 l 1
77 297 m 1
 657 297 l 1
 657 193 l 1
 77 193 l 1
 77 297 l 1
77 535 m 1
 657 535 l 1
 657 431 l 1
 77 431 l 1
 77 535 l 1
EndSplineSet
Validated: 5
EndChar

StartChar: dollar
Encoding: 36 36 65
Width: 617
VWidth: 1048
Flags: HW
HStem: -8 108<225.915 439.5> 607 108<185.324 402.128>
VStem: 56 124<454.573 574.744> 247 128<-139 304 315 406 424 863> 449 128<133.334 257.919>
LayerCount: 2
Fore
SplineSet
247 863 m 5
 375 863 l 5
 375 -139 l 1
 247 -139 l 1
 247 863 l 5
318 715 m 1
 420 715 509 670 566 574 c 1
 469 514 l 1
 432 582 377 607 314 607 c 1
 228 607 180 579 180 522 c 1
 180 456 206 439 279 424 c 1
 367 406 l 0
 497 379 577 311 577 191 c 1
 577 59 474 -8 313 -8 c 1
 203 -8 104 23 40 129 c 1
 144 195 l 1
 176 130 238 100 313 100 c 1
 405 100 449 130 449 195 c 1
 449 266 402 287 317 304 c 1
 251 315 l 0
 135 337 56 393 56 519 c 1
 56 645 158 715 318 715 c 1
EndSplineSet
Validated: 5
EndChar

StartChar: percent
Encoding: 37 37 66
Width: 858
VWidth: 1048
Flags: HW
HStem: -8 96<584.961 669.039> 0 21G<158 293.485> 232 96<585.951 668.216> 379 96<180.961 265.039> 619 96<181.951 264.049> 687 20G<553.487 688>
VStem: 64 104<487.108 606.355> 278 104<487.108 606.215> 468 104<100.108 219.355> 682 104<99.9074 219.215>
LayerCount: 2
Fore
SplineSet
627 232 m 0xb3c0
 594 232 572 205 572 158 c 0
 572 112 593 88 627 88 c 0
 661 88 682 112 682 158 c 0
 682 204 660 232 627 232 c 0xb3c0
627 328 m 24
 718 328 786 255 786 160 c 0
 786 64 717 -8 627 -8 c 24
 537 -8 468 65 468 160 c 0
 468 255 537 328 627 328 c 24
223 619 m 4x3bc0
 190 619 168 592 168 545 c 0
 168 499 189 475 223 475 c 0
 257 475 278 499 278 545 c 0
 278 591 256 619 223 619 c 4x3bc0
223 715 m 24
 313 715 382 642 382 547 c 0
 382 452 313 379 223 379 c 24
 133 379 64 452 64 547 c 0
 64 642 133 715 223 715 c 24
158 0 m 1x77c0
 565 707 l 1
 688 707 l 1
 282 0 l 1
 158 0 l 1x77c0
EndSplineSet
Validated: 1
EndChar

StartChar: ampersand
Encoding: 38 38 67
Width: 725
VWidth: 1048
Flags: HW
HStem: -8 104<244.04 418.28> 0 21G<515.643 659> 603 104<261 552>
VStem: 56 128<152.185 306.226> 514 115<196.794 426>
LayerCount: 2
Fore
SplineSet
145 707 m 1x78
 552 707 l 1
 552 603 l 1
 261 603 l 1
 659 0 l 1
 529 0 l 1
 145 575 l 1
 145 707 l 1x78
514 308 m 1
 514 426 l 1
 629 426 l 1
 629 308 l 1
 629 138 512 -8 327 -8 c 1
 174 -8 56 69 56 227 c 1
 56 333 138 447 275 447 c 1
 332 365 l 1
 230 365 185 302 184 227 c 1
 184 144 245 96 327 96 c 1xb8
 440 96 514 168 514 308 c 1
EndSplineSet
Validated: 5
Colour: ff0000
EndChar

StartChar: quotesingle
Encoding: 39 39 68
Width: 180
VWidth: 1048
Flags: HW
HStem: 527 241<48 132>
VStem: 48 84<527 634.968>
LayerCount: 2
Fore
SplineSet
148 768 m 5
 132 527 l 5
 48 527 l 5
 32 768 l 5
 148 768 l 5
EndSplineSet
Validated: 1
EndChar

StartChar: parenleft
Encoding: 40 40 69
Width: 400
VWidth: 1048
Flags: HW
VStem: 64 125<198.577 542.528>
LayerCount: 2
Fore
SplineSet
236 800 m 1
 368 800 l 5
 285 739 189 598 189 368 c 4
 189 139 293 7 368 -59 c 5
 231 -59 l 1
 126 26 64 191 64 368 c 0
 64 563 124 709 236 800 c 1
EndSplineSet
Validated: 1
EndChar

StartChar: parenright
Encoding: 41 41 70
Width: 402
VWidth: 1048
Flags: HW
VStem: 211 127<198.472 542.423>
LayerCount: 2
Fore
SplineSet
166 -59 m 5
 32 -59 l 1
 115 2 211 143 211 373 c 0
 211 602 107 734 32 800 c 1
 171 800 l 5
 276 715 338 550 338 373 c 4
 338 178 278 32 166 -59 c 5
EndSplineSet
Validated: 1
EndChar

StartChar: asterisk
Encoding: 42 42 71
Width: 550
VWidth: 1048
Flags: HW
HStem: 687 20G<89.9683 157.875 368.75 436.349>
VStem: 230 66<657.338 806>
LayerCount: 2
Fore
SplineSet
129 488 m 1
 188 573 l 1
 247 633 l 1
 280 608 l 1
 243 535 l 1
 182 451 l 1
 129 488 l 1
397 488 m 1
 344 451 l 1
 284 535 l 1
 247 608 l 1
 280 633 l 1
 338 573 l 1
 397 488 l 1
96 707 m 1
 195 675 l 1
 269 638 l 1
 257 599 l 1
 175 612 l 1
 77 644 l 1
 96 707 l 1
430 707 m 1
 450 644 l 1
 351 612 l 1
 269 599 l 1
 257 638 l 1
 332 675 l 1
 430 707 l 1
230 806 m 1
 296 806 l 1
 296 702 l 1
 284 621 l 1
 243 621 l 1
 230 702 l 1
 230 806 l 1
EndSplineSet
Validated: 5
EndChar

StartChar: plus
Encoding: 43 43 72
Width: 613
VWidth: 1048
Flags: HW
HStem: 215 104<77 513>
VStem: 231 128<54 480>
LayerCount: 2
Fore
SplineSet
231 480 m 1
 359 480 l 1
 359 54 l 1
 231 54 l 1
 231 480 l 1
77 319 m 1
 513 319 l 5
 513 215 l 5
 77 215 l 1
 77 319 l 1
EndSplineSet
Validated: 5
EndChar

StartChar: comma
Encoding: 44 44 73
Width: 268
VWidth: 1048
Flags: HW
HStem: -144 222<94 120>
VStem: 24 184
LayerCount: 2
Fore
SplineSet
208 78 m 1
 120 -144 l 5
 24 -144 l 1
 94 78 l 1
 208 78 l 1
EndSplineSet
Validated: 1
EndChar

StartChar: hyphen
Encoding: 45 45 74
Width: 489
VWidth: 1048
Flags: HW
HStem: 215 108<77 414>
VStem: 77 337<215 323>
LayerCount: 2
Fore
SplineSet
77 323 m 5
 414 323 l 5
 414 215 l 1
 77 215 l 1
 77 323 l 5
EndSplineSet
Validated: 1
EndChar

StartChar: period
Encoding: 46 46 75
Width: 249
VWidth: 1048
Flags: HW
HStem: -8 146<71.5 174.5>
VStem: 50 146<13.5 116.5>
LayerCount: 2
Fore
SplineSet
50 65 m 0
 50 105 83 138 123 138 c 0
 163 138 196 105 196 65 c 0
 196 25 163 -8 123 -8 c 0
 83 -8 50 25 50 65 c 0
EndSplineSet
Validated: 1
EndChar

StartChar: slash
Encoding: 47 47 76
Width: 474
VWidth: 1048
Flags: HW
HStem: 748 20G<333.507 474>
LayerCount: 2
Fore
SplineSet
1 -35 m 1
 342 768 l 1
 474 768 l 1
 133 -35 l 1
 1 -35 l 1
EndSplineSet
Validated: 1
EndChar

StartChar: zero
Encoding: 48 48 77
Width: 594
VWidth: 1048
Flags: HW
HStem: -9 100<232.955 357.226> 615 100<231.416 359.753>
VStem: 36 128<185.875 523.262> 431 128<194.778 517.433>
LayerCount: 2
Fore
SplineSet
164 357 m 0
 164 182 208 91 294 91 c 0
 382 91 431 187 431 360 c 0
 431 528 385 615 295 615 c 0
 207 615 164 530 164 357 c 0
36 354 m 0
 36 588 127 715 296 715 c 0
 465 715 559 588 559 355 c 0
 559 122 465 -9 295 -9 c 0
 127 -9 36 119 36 354 c 0
EndSplineSet
Validated: 1
EndChar

StartChar: one
Encoding: 49 49 78
Width: 594
VWidth: 1048
Flags: HW
HStem: 0 108<84 538> 687 20G<217.964 389>
VStem: 261 128<0 584>
LayerCount: 2
Fore
SplineSet
84 108 m 1
 538 108 l 5
 538 0 l 5
 84 0 l 1
 84 108 l 1
261 0 m 1
 261 584 l 1
 66 477 l 1
 66 595 l 1
 251 707 l 1
 389 707 l 1
 389 0 l 1
 261 0 l 1
EndSplineSet
Validated: 5
Colour: ff0000
EndChar

StartChar: two
Encoding: 50 50 79
Width: 594
VWidth: 1048
Flags: HW
HStem: 0 108<232 522> 524 21G<120.276 167> 611 104<208.455 357.454>
VStem: 394 128<422.817 573.691>
LayerCount: 2
Fore
SplineSet
81 121 m 1
 291 326 l 0
 348 384 394 431 394 503 c 0
 394 574 349 611 290 611 c 0
 214 611 182 576 152 524 c 1
 60 582 l 1
 101 668 185 715 296 715 c 0
 432 715 522 640 522 502 c 0
 522 409 461 332 388 260 c 0
 232 108 l 1
 523 108 l 5
 522 0 l 5
 81 0 l 1
 81 121 l 1
EndSplineSet
Validated: 1
EndChar

StartChar: three
Encoding: 51 51 80
Width: 594
VWidth: 1048
Flags: HW
HStem: -8 108<179.895 359.008> 599 108<85 337>
VStem: 410 128<147.93 288.217>
LayerCount: 2
Fore
SplineSet
85 707 m 1
 501 707 l 0
 501 618 l 0
 329 432 l 1
 410 432 538 377 538 212 c 0
 538 77 440 -8 280 -8 c 0
 158 -8 83 49 41 139 c 1
 133 195 l 1
 159 143 201 100 278 100 c 0
 368 100 410 153 410 214 c 0
 410 289 364 332 283 332 c 2
 203 332 l 1
 203 441 l 1
 337 599 l 1
 85 599 l 1
 85 707 l 1
EndSplineSet
Validated: 1
EndChar

StartChar: four
Encoding: 52 52 81
Width: 594
VWidth: 1048
Flags: HW
HStem: 0 21G<332 460> 148 108<163 556> 687 20G<280.603 428>
VStem: 332 128<0 388>
LayerCount: 2
Fore
SplineSet
292 707 m 1
 428 707 l 1
 179 256 l 5
 51 256 l 5
 292 707 l 1
51 256 m 5
 556 256 l 5
 556 148 l 1
 51 148 l 1
 51 256 l 5
332 388 m 1
 460 388 l 1
 460 0 l 1
 332 0 l 1
 332 388 l 1
EndSplineSet
Validated: 5
EndChar

StartChar: five
Encoding: 53 53 82
Width: 594
VWidth: 1048
Flags: HW
HStem: -8 104<185.003 345.835> 361 100<233.53 346.643> 599 108<213 486>
VStem: 399 128<146.669 306.443>
LayerCount: 2
Fore
SplineSet
321 461 m 1
 429 461 527 380 527 233 c 0
 527 96 425 -8 270 -8 c 1
 142 -8 79 38 35 101 c 1
 128 175 l 1
 162 124 205 96 264 96 c 1
 349 96 399 153 399 232 c 4
 399 313 350 361 272 361 c 1
 232 361 198 340 187 321 c 1
 169 321 l 1
 169 379 205 461 321 461 c 1
99 707 m 1
 213 707 l 1
 187 321 l 1
 73 321 l 1
 99 707 l 1
209 707 m 1
 486 707 l 1
 486 599 l 1
 152 599 l 1
 209 707 l 1
EndSplineSet
Validated: 5
EndChar

StartChar: six
Encoding: 54 54 83
Width: 594
VWidth: 1048
Flags: HW
HStem: -8 100<219.054 380.602> 354 93<237.151 386.681> 616 100<260.699 435.761>
VStem: 46 128<159.68 495.781> 429 128<140.559 311.248>
LayerCount: 2
Back
SplineSet
310.83203125 391 m 4
 231.83203125 391 181.83203125 333 181.83203125 250 c 4
 181.83203125 154 231.83203125 100 310.83203125 100 c 4
 390.83203125 100 436.83203125 154 436.83203125 246 c 4
 436.83203125 336 390.83203125 391 310.83203125 391 c 4
431.83203125 707 m 5
 194.83203125 426 l 5
 229.83203125 466 280.83203125 495 337.83203125 495 c 4
 465.83203125 495 564.83203125 403 564.83203125 246 c 4
 564.83203125 83 451.83203125 -8 307.83203125 -8 c 4
 146.83203125 -8 53.83203125 92 53.83203125 253 c 4
 53.83203125 341 70.83203125 430 147.83203125 527 c 4
 190.83203125 581 246.83203125 650 292.83203125 707 c 5
 431.83203125 707 l 5
EndSplineSet
Fore
SplineSet
304 354 m 0
 221 354 174 312 174 222 c 0
 174 132 221 93 300 93 c 0
 381 93 429 135 429 227 c 0
 429 316 385 354 304 354 c 0
341 716 m 1
 423 716 487 689 539 638 c 5
 487 562 l 1
 444 596 396 616 342 616 c 0
 240 616 171 539 171 358 c 1
 200 416 257 447 335 447 c 0
 464 447 557 368 557 229 c 0
 557 79 454 -7 298 -7 c 0
 133 -7 46 95 46 328 c 0
 46 582 158 716 341 716 c 1
EndSplineSet
Validated: 1
EndChar

StartChar: seven
Encoding: 55 55 84
Width: 594
VWidth: 1048
Flags: HW
HStem: 0 21G<145 289.27> 607 100<46 532>
LayerCount: 2
Fore
SplineSet
46 707 m 1
 532 707 l 1
 532 607 l 1
 46 607 l 1
 46 707 l 1
394 607 m 1
 532 607 l 1
 281 0 l 5
 145 0 l 5
 394 607 l 1
EndSplineSet
Validated: 5
Colour: ff0000
EndChar

StartChar: eight
Encoding: 56 56 85
Width: 594
VWidth: 1048
Flags: HW
HStem: -7 100<221.115 377.818> 312 108<230 363> 337 60<169 424> 614 100<226.46 366.618>
VStem: 48 128<134.24 269.25> 66 128<453.339 582.494> 400 128<453.336 582.105> 418 128<129.936 268.015>
LayerCount: 2
Fore
SplineSet
297 312 m 0xd9
 221 312 176 267 176 204 c 0
 176 140 218 93 299 93 c 0
 376 93 418 134 418 196 c 0
 418 260 378 312 297 312 c 0xd9
297 614 m 0
 231 614 194 575 194 519 c 0
 194 463 230 420 296 420 c 0
 363 420 400 462 400 519 c 0xd6
 400 574 363 614 297 614 c 0
48 198 m 4xb9
 48 325 153 397 296 397 c 0
 439 397 546 325 546 198 c 4
 546 78 450 -7 296 -7 c 0
 143 -7 48 77 48 198 c 4xb9
66 524 m 0xb6
 66 634 152 714 296 714 c 0
 440 714 528 633 528 524 c 0
 528 405 424 337 296 337 c 0
 169 337 66 404 66 524 c 0xb6
EndSplineSet
Validated: 5
EndChar

StartChar: nine
Encoding: 57 57 86
Width: 594
VWidth: 1048
Flags: HW
HStem: -7 100<158.701 338.856> 262 93<220.796 366.028> 616 100<222.815 379.803>
VStem: 46 128<401.502 568.028> 429 128<209 543.251>
LayerCount: 2
Fore
SplineSet
298 355 m 0
 383 355 429 399 429 480 c 0
 429 566 387 616 302 616 c 0
 223 616 174 571 174 484 c 0
 174 396 221 355 298 355 c 0
258 -7 m 1
 176 -7 117 19 60 71 c 1
 112 147 l 1
 155 113 187 93 257 93 c 0
 359 93 432 170 432 351 c 1
 403 293 346 262 268 262 c 0
 139 262 46 341 46 480 c 0
 46 630 143 716 299 716 c 0
 464 716 557 609 557 376 c 0
 557 122 441 -7 258 -7 c 1
EndSplineSet
Validated: 1
EndChar

StartChar: colon
Encoding: 58 58 87
Width: 338
VWidth: 1048
Flags: HW
HStem: -8 146<117.5 220.5> 381 146<117.5 220.5>
VStem: 96 146<13.5 116.5 402.5 505.5>
LayerCount: 2
Fore
SplineSet
96 454 m 4
 96 494 129 527 169 527 c 4
 209 527 242 494 242 454 c 4
 242 414 209 381 169 381 c 4
 129 381 96 414 96 454 c 4
96 65 m 0
 96 105 129 138 169 138 c 0
 209 138 242 105 242 65 c 0
 242 25 209 -8 169 -8 c 0
 129 -8 96 25 96 65 c 0
EndSplineSet
Validated: 1
EndChar

StartChar: semicolon
Encoding: 59 59 88
Width: 268
VWidth: 1048
Flags: HW
HStem: 381 146<100.5 203.5>
VStem: 79 146<402.5 505.5>
LayerCount: 2
Fore
SplineSet
79 454 m 4
 79 494 112 527 152 527 c 4
 192 527 225 494 225 454 c 4
 225 414 192 381 152 381 c 4
 112 381 79 414 79 454 c 4
208 78 m 1
 120 -144 l 1
 24 -144 l 1
 94 78 l 1
 208 78 l 1
EndSplineSet
Validated: 1
EndChar

StartChar: less
Encoding: 60 60 89
Width: 548
VWidth: 1048
Flags: HW
LayerCount: 2
Fore
SplineSet
48 328 m 1
 464 504 l 1
 492 413 l 1
 48 229 l 1
 48 328 l 1
48 328 m 5
 492 144 l 5
 464 53 l 1
 48 229 l 1
 48 328 l 5
EndSplineSet
Validated: 5
EndChar

StartChar: equal
Encoding: 61 61 90
Width: 597
VWidth: 1048
Flags: HW
HStem: 120 108<77 497> 330 108<77 497>
LayerCount: 2
Fore
SplineSet
77 438 m 1
 497 438 l 1
 497 330 l 1
 77 330 l 1
 77 438 l 1
77 228 m 1
 497 228 l 1
 497 120 l 1
 77 120 l 1
 77 228 l 1
EndSplineSet
Validated: 1
EndChar

StartChar: greater
Encoding: 62 62 91
Width: 548
VWidth: 1048
Flags: HW
LayerCount: 2
Fore
SplineSet
500 328 m 1
 500 229 l 1
 56 413 l 1
 84 504 l 1
 500 328 l 1
500 328 m 1
 500 229 l 1
 84 53 l 1
 56 144 l 1
 500 328 l 1
EndSplineSet
Validated: 5
EndChar

StartChar: question
Encoding: 63 63 92
Width: 534
VWidth: 1048
Flags: HW
HStem: -8 146<202.5 305.5> 624 108<161.23 309.581>
VStem: 181 146<13.5 116.5> 181 120<200.677 307.552> 342 128<455.163 594.152>
LayerCount: 2
Fore
SplineSet
181 65 m 0xe8
 181 105 214 138 254 138 c 0
 294 138 327 105 327 65 c 0
 327 25 294 -8 254 -8 c 0
 214 -8 181 25 181 65 c 0xe8
30 612 m 1
 64 676 130 732 251 732 c 1
 380 732 470 664 470 541 c 1
 470 455 433 398 369 353 c 0
 315 315 301 275 301 237 c 1
 301 224 303 215 306 201 c 1
 187 184 l 1
 183 206 181 221 181 239 c 1xd8
 181 314 207 361 264 402 c 0
 317 440 342 471 342 533 c 1
 342 594 298 624 238 624 c 1
 184 624 137 598 118 550 c 1
 30 612 l 1
EndSplineSet
Validated: 1
EndChar

StartChar: at
Encoding: 64 64 93
Width: 998
Flags: HW
HStem: -96 108<383.544 661.773> 131 104<416.071 530.106> 473 104<433.746 556.565> 692 108<373.276 623.379>
VStem: 48 128<228.95 490.314> 260 131<261.051 423.72> 806 128<262.833 508.468>
LayerCount: 2
Fore
SplineSet
695 46 m 1
 695 -62 l 1
 630 -88 566 -96 497 -96 c 1
 248 -96 48 54 48 364 c 1
 48 620 252 800 494 800 c 1
 760 800 934 620 934 395 c 1
 934 301 903 211 857 145 c 1
 722 130 l 1
 581 228 l 1
 669 308 l 1
 771 239 l 1
 796 276 806 338 806 383 c 1
 806 571 687 692 494 692 c 1
 308 692 176 568 176 360 c 1
 176 156 305 12 501 12 c 1
 572 12 630 16 695 46 c 1
618 567 m 1
 718 567 l 1
 685 245 l 1
 565 242 l 1
 583 498 l 1
 618 567 l 1
666 371 m 1
 648 219 544 131 447 131 c 0
 341 131 260 201 260 325 c 0
 260 335 261 346 262 357 c 0
 275 482 377 577 492 577 c 0
 562 577 621 519 633 462 c 1
 666 371 l 1
496 473 m 0
 445 473 400 438 392 359 c 0
 391 350 391 342 391 334 c 0
 391 262 426 235 472 235 c 0
 525 235 563 272 572 360 c 0
 577 430 l 1
 554 461 522 473 496 473 c 0
EndSplineSet
Validated: 5
EndChar

StartChar: gravecomb
Encoding: 768 768 95
Width: 0
VWidth: 1048
Flags: HW
HStem: 737 193
VStem: -144 280
AnchorPoint: "AccentCenter" 0 840 mark 0
LayerCount: 2
Back
Fore
SplineSet
99 737 m 1
 -144 814 l 5
 -85 930 l 1
 136 816 l 1
 99 737 l 1
EndSplineSet
Validated: 1
EndChar

StartChar: acutecomb
Encoding: 769 769 96
Width: 0
VWidth: 1048
Flags: HW
HStem: 737 193
VStem: -144 280
AnchorPoint: "AccentCenter" 0 840 mark 0
LayerCount: 2
Back
Fore
SplineSet
-107 737 m 1
 -144 816 l 1
 77 930 l 1
 136 814 l 5
 -107 737 l 1
EndSplineSet
Validated: 1
EndChar

StartChar: uni0302
Encoding: 770 770 97
Width: 0
VWidth: 1048
Flags: HW
HStem: 729 201
AnchorPoint: "AccentCenter" 0 840 mark 0
LayerCount: 2
Back
Fore
SplineSet
-188 800 m 25
 -33 930 l 1
 33 930 l 1
 188 800 l 17
 131 729 l 5
 0 835 l 25
 -139 729 l 1
 -188 800 l 25
EndSplineSet
Validated: 1
EndChar

StartChar: tildecomb
Encoding: 771 771 98
Width: 0
VWidth: 1048
Flags: HW
HStem: 752 94<22.3279 109.528> 819 94<-111.508 -22.9507>
AnchorPoint: "AccentCenter" 0 838 mark 0
LayerCount: 2
Back
Fore
SplineSet
-219 780 m 5x40
 -207 853 -164 913 -81 913 c 0x40
 -2 913 22 846 72 846 c 0
 106 846 117 872 121 905 c 1
 219 889 l 1
 202 795 157 752 76 752 c 0x80
 -2 752 -21 819 -70 819 c 4
 -103 819 -119 799 -124 760 c 5
 -219 780 l 5x40
EndSplineSet
Validated: 1
EndChar

StartChar: uni030A
Encoding: 778 778 100
Width: 0
VWidth: 1048
Flags: HW
HStem: 730 70<-35.3046 35.3046> 880 70<-35.3046 35.3046>
VStem: -110 71<803.541 876.459> 39 71<803.541 876.459>
AnchorPoint: "Ring" 0 840 mark 0
LayerCount: 2
Back
Fore
SplineSet
-39 840 m 0
 -39 816 -22 800 0 800 c 4
 22 800 39 816 39 840 c 0
 39 864 22 880 0 880 c 0
 -22 880 -39 864 -39 840 c 0
-110 840 m 0
 -110 904 -61 950 0 950 c 0
 61 950 110 904 110 840 c 0
 110 776 61 730 0 730 c 0
 -61 730 -110 776 -110 840 c 0
EndSplineSet
Validated: 1
EndChar

StartChar: uni0308
Encoding: 776 776 101
Width: 0
VWidth: 1048
Flags: HW
HStem: 788 138<-162.908 -63.0921 63.0921 162.908>
VStem: -182 138<807.092 906.908> 44 138<807.092 906.908>
AnchorPoint: "AccentCenter" 0 860 mark 0
LayerCount: 2
Back
Fore
SplineSet
44 857 m 4
 44 895 75 926 113 926 c 4
 151 926 182 895 182 857 c 4
 182 819 151 788 113 788 c 4
 75 788 44 819 44 857 c 4
-182 857 m 0
 -182 895 -151 926 -113 926 c 0
 -75 926 -44 895 -44 857 c 0
 -44 819 -75 788 -113 788 c 0
 -151 788 -182 819 -182 857 c 0
EndSplineSet
Validated: 1
EndChar

StartChar: dotlessi
Encoding: 305 305 116
Width: 303
VWidth: 1048
Flags: HW
HStem: 0 21G<114 242> 415 104<16 170>
VStem: 114 128<0 415> 114 56<415 519>
AnchorPoint: "AccentCenter" 161 686 basechar 0
LayerCount: 2
Fore
SplineSet
16 519 m 1xd0
 170 519 l 1
 170 415 l 1
 16 415 l 1
 16 519 l 1xd0
114 0 m 1xe0
 114 519 l 1xd0
 242 519 l 1
 242 0 l 1
 114 0 l 1xe0
EndSplineSet
Validated: 5
EndChar

StartChar: sterling
Encoding: 163 163 153
Width: 628
Flags: HW
HStem: 0 108<59 574> 291 108<24 439> 607 108<271.318 432.961>
VStem: 97 128<404.65 562.633> 168 128<187.801 289.629>
LayerCount: 2
Fore
SplineSet
24 399 m 1xe0
 439 399 l 1
 439 291 l 1
 24 291 l 1
 24 399 l 1xe0
59 108 m 1
 574 108 l 5
 574 0 l 5
 59 0 l 1
 59 108 l 1
97 504 m 1xf0
 97 620 195 715 355 715 c 0
 486 715 554 648 596 578 c 1
 497 515 l 0
 471 570 415 607 352 607 c 1
 281 607 225 569 225 498 c 0xf0
 225 388 296 363 296 257 c 0
 296 175 246 126 208 108 c 1
 59 108 l 1
 59 112 l 1
 59 112 168 156 168 267 c 0xe8
 168 353 97 397 97 504 c 1xf0
EndSplineSet
Validated: 5
EndChar

StartChar: AE
Encoding: 198 198 154
Width: 999
VWidth: 1048
Flags: HW
HStem: 0 104<602 943> 153 104<235 496> 316 104<535 865> 603 104<602 943>
VStem: 474 22<153 257> 535 67<316 420>
AnchorPoint: "AccentCenter" 617 880 basechar 0
LayerCount: 2
Fore
SplineSet
235 257 m 1
 496 257 l 1
 496 153 l 1
 235 153 l 1
 235 257 l 1
535 420 m 1
 865 420 l 1
 865 316 l 1
 535 316 l 1
 535 420 l 1
602 104 m 1
 943 104 l 1
 943 0 l 1
 602 0 l 1
 602 104 l 1
602 707 m 1
 943 707 l 1
 943 603 l 1
 602 603 l 1
 602 707 l 1
474 707 m 1
 602 707 l 1
 602 0 l 1
 474 0 l 1
 474 707 l 1
390 707 m 1
 474 707 l 1
 480 622 l 1
 170 0 l 1
 40 0 l 1
 390 707 l 1
EndSplineSet
Validated: 5
EndChar

StartChar: Euro
Encoding: 8364 8364 155
Width: 733
Flags: HW
HStem: -8 104<334.256 532.132> 235 80<38 423> 409 80<32 481> 611 104<347.589 531.848>
VStem: 112 128<263.979 406.427>
LayerCount: 2
Fore
SplineSet
435 715 m 1
 522 715 609 677 662 596 c 1
 598 532 l 1
 569 575 511 611 443 611 c 1
 323 611 240 535 240 353 c 1
 240 167 311 96 431 96 c 1
 499 96 548 117 600 170 c 1
 662 98 l 1
 604 40 518 -8 421 -8 c 1
 224 -8 112 132 112 353 c 1
 112 577 238 715 435 715 c 1
38 315 m 1
 450 315 l 1
 423 235 l 1
 38 235 l 5
 38 315 l 1
32 489 m 1
 509 489 l 1
 481 409 l 1
 32 409 l 1
 32 489 l 1
EndSplineSet
Validated: 5
EndChar

StartChar: yen
Encoding: 165 165 156
Width: 698
VWidth: 1048
Flags: HW
HStem: 0 21G<287 415> 83 108<105 594> 272 108<105 594> 272 3<287 415> 687 20G<48 200.138 498 650>
VStem: 287 128<0 275>
AnchorPoint: "AccentCenter" 320 880 basechar 0
LayerCount: 2
Fore
SplineSet
105 191 m 1xcc
 594 191 l 1
 594 83 l 1
 105 83 l 1
 105 191 l 1xcc
105 380 m 1xec
 594 380 l 1
 594 272 l 1
 105 272 l 1
 105 380 l 1xec
287 275 m 1xdc
 415 275 l 1
 415 0 l 1
 287 0 l 1
 287 275 l 1xdc
292 275 m 1
 508 707 l 1
 650 707 l 1
 410 263 l 1
 292 275 l 1
48 707 m 1
 190 709 l 1
 410 275 l 1
 292 263 l 1
 48 707 l 1
EndSplineSet
Validated: 5
EndChar

StartChar: ae
Encoding: 230 230 157
Width: 847
Flags: HW
HStem: -8 100<186.815 318.086 517.247 669.525> 218 90<182.091 344 472 678> 423 104<162.043 313.279 511.394 646.437>
VStem: 42 128<109.314 205.066> 344 128<149 218 308 381> 384 48<142.544 436> 432 40<143.14 218> 678 127<308 386.573>
LayerCount: 2
Fore
SplineSet
580 423 m 5xf9
 511 423 472 381 472 308 c 5
 678 308 l 5
 678 320 l 5
 678 383 643 423 580 423 c 5xf9
600 527 m 4
 715 527 805 440 805 294 c 5
 805 267 801 235 794 218 c 5
 472 218 l 5xf9
 472 144 514 92 590 92 c 4
 655 92 689 120 713 162 c 5
 792 95 l 5
 743 25 676 -8 590 -8 c 4
 446 -8 384 81 384 261 c 4xf5
 384 436 436 527 600 527 c 4
170 162 m 4
 170 125 192 92 246 92 c 4
 295 92 328 112 344 149 c 5
 344 218 l 5
 248 218 l 6
 200 218 170 205 170 162 c 4
415 109 m 5
 392 41 326 -8 220 -8 c 4
 116 -8 42 51 42 154 c 4
 42 259 109 308 238 308 c 6
 344 308 l 5
 344 326 l 6xf9
 344 384 307 423 248 423 c 4
 191 423 162 408 136 376 c 5
 62 438 l 5
 108 500 161 527 244 527 c 4
 372 527 429 456 430 339 c 6
 432 167 l 5xf5
 415 109 l 5
EndSplineSet
Validated: 5
EndChar

StartChar: eth
Encoding: 240 240 158
Width: 588
Flags: HW
HStem: -8 100<227.886 362.971> 427 100<222.096 346.288> 687 28G<138 360.5 396.815 482>
VStem: 40 128<157.264 366.858> 420 128<155.423 382.345>
LayerCount: 2
Fore
SplineSet
137 626 m 1
 482 707 l 1
 482 622 l 1
 137 539 l 1
 137 626 l 1
168 260 m 4
 168 161 214 92 295 92 c 4
 375 92 420 160 420 253 c 4
 420 314 415 348 403 384 c 5
 378 410 329 427 289 427 c 4
 211 427 168 363 168 260 c 4
303 715 m 5
 418 641 548 495 548 259 c 5
 548 99 442 -8 296 -8 c 5
 145 -8 40 87 40 274 c 5
 40 412 132 527 265 527 c 5
 313 527 356 506 392 468 c 5
 331 573 223 673 138 715 c 5
 303 715 l 5
EndSplineSet
Validated: 5
EndChar

StartChar: thorn
Encoding: 254 254 159
Width: 629
VWidth: 1048
Flags: HW
HStem: -8 104<258.367 401.034> 423 104<255.164 401.663> 695 20G<64 192>
VStem: 64 128<-192 715> 157 23<145 196> 167 25<310.45 470> 167 13<310.45 377> 461 128<158.355 360.207>
LayerCount: 2
Fore
SplineSet
167 370 m 5xe5
 167 470 259 527 348 527 c 0
 492 527 589 422 589 265 c 0
 589 98 490 -8 348 -8 c 0
 244 -8 157 71 157 196 c 5xe9
 180 262 l 5
 180 145 246 96 324 96 c 0
 405 96 461 146 461 262 c 0
 461 370 406 423 325 423 c 0
 243 423 180 377 180 262 c 5xe3
 167 370 l 5xe5
64 715 m 1xf1
 192 715 l 1
 192 -192 l 1
 64 -192 l 1
 64 715 l 1xf1
EndSplineSet
Validated: 5
EndChar

StartChar: oslash
Encoding: 248 248 160
Width: 586
VWidth: 1048
Flags: HW
HStem: -8 104<223.702 356.537> 0 21G<44 182.644> 423 104<220.626 361.743> 499 20G<409.356 548>
VStem: 38 128<144.832 362.014> 410 128<152.884 360.03>
AnchorPoint: "AccentCenter" 293 686 basechar 0
LayerCount: 2
Fore
SplineSet
166 254 m 0xac
 166 150 206 96 286 96 c 0
 368 96 410 153 410 258 c 0
 410 363 368 423 286 423 c 0
 207 423 166 359 166 254 c 0xac
38 259 m 0
 38 431 127 527 286 527 c 0
 442 527 538 428 538 261 c 0
 538 93 441 -8 286 -8 c 0
 132 -8 38 91 38 259 c 0
424 519 m 1x5c
 548 519 l 1
 168 0 l 1
 44 0 l 1
 424 519 l 1x5c
EndSplineSet
Validated: 5
EndChar

StartChar: currency
Encoding: 164 164 161
Width: 654
Flags: HW
HStem: -7 21G<82.2985 122 532 571.701> 22 108<257.751 396.249> 389 108<257.751 396.249> 508 20G<82.2985 122 532 571.701>
VStem: 95 108<188.187 330.925> 451 108<188.528 331.267>
LayerCount: 2
Fore
SplineSet
499 179 m 1
 618 60 l 1
 552 -7 l 1
 433 112 l 1
 499 179 l 1
221 112 m 1
 102 -7 l 1
 36 60 l 5
 155 178 l 5
 221 112 l 1
155 342 m 1
 36 461 l 1
 102 528 l 1
 221 409 l 1
 155 342 l 1
432 408 m 1
 552 528 l 1
 618 461 l 1
 498 342 l 1
 432 408 l 1
203 259 m 0
 203 188 258 130 327 130 c 0
 396 130 451 189 451 260 c 0
 451 331 396 389 327 389 c 0
 258 389 203 330 203 259 c 0
95 260 m 0
 95 391 199 497 327 497 c 0
 455 497 559 391 559 260 c 0
 559 129 455 22 327 22 c 0
 199 22 95 129 95 260 c 0
EndSplineSet
Validated: 5
EndChar

StartChar: uni0327
Encoding: 807 807 163
Width: 0
Flags: HW
HStem: -224 90<-160 -68.4567> -215 81<-160 -110.217> -20 20G<-54 54>
VStem: -54 108<-120.593 0>
LayerCount: 2
Back
Fore
SplineSet
-109 -224 m 1xb0
 -135 -224 -158 -220 -173 -215 c 1x70
 -160 -134 l 1
 -113 -134 l 1
 -76 -134 -54 -110 -54 -73 c 1
 -54 0 l 1
 54 0 l 1
 54 -64 l 1
 54 -166 -7 -224 -109 -224 c 1xb0
EndSplineSet
Validated: 1
EndChar

StartChar: Thorn
Encoding: 222 222 164
Width: 540
Flags: HW
HStem: 0 21G<64 192> 151 108<192 341.679> 460 108<192 341.021> 687 20G<64 192>
VStem: 64 128<0 151 259 460 568 707> 372 128<290.889 427.598>
LayerCount: 2
Fore
SplineSet
192 568 m 1
 287 568 l 1
 407 568 500 490 500 356 c 0
 500 236 404 151 281 151 c 1
 192 151 l 1
 192 259 l 1
 273 259 l 1
 336 259 372 294 372 357 c 0
 372 423 336 460 279 460 c 1
 192 460 l 1
 192 568 l 1
64 707 m 1
 192 707 l 1
 192 0 l 1
 64 0 l 1
 64 707 l 1
EndSplineSet
Validated: 5
EndChar

StartChar: section
Encoding: 167 167 165
Width: 569
Flags: HW
HStem: -193 100<159.232 351.127> 668 100<216.916 405.941>
VStem: 20 124<279.594 406.276> 52 124<517.594 630.143> 390 128<-55.7159 67.7618> 422 128<163.669 305.762>
LayerCount: 2
Fore
SplineSet
279 342 m 1049
170 398 m 1xe8
 153 382 144 362 144 337 c 1
 144 283 188 249 261 234 c 1
 300 225 l 0
 430 198 518 130 518 10 c 1
 518 -113 409 -193 244 -193 c 1
 134 -193 38 -141 -12 -56 c 1
 75 10 l 1
 112 -51 169 -93 258 -93 c 1
 350 -93 390 -55 390 10 c 1
 387 72 339 105 254 122 c 1
 216 130 l 0
 100 152 21 217 20 329 c 1
 20 386 43 435 84 470 c 1
 170 398 l 1xe8
404 184 m 1
 416 202 422 223 422 248 c 1
 419 310 371 343 286 360 c 1
 248 368 l 0
 132 390 53 455 52 567 c 1
 52 684 148 768 308 768 c 1
 409 768 492 728 543 651 c 1
 473 590 l 1
 430 647 373 668 310 668 c 1
 224 668 176 632 176 575 c 1
 176 521 220 487 293 472 c 1
 332 463 l 0
 462 436 550 368 550 248 c 1xd4
 550 189 525 144 481 113 c 1
 404 184 l 1
EndSplineSet
Validated: 5
EndChar

StartChar: mu
Encoding: 181 181 166
Width: 589
VWidth: 1048
Flags: HW
HStem: -8 104<215.445 350.92> 0 108<515 580> 499 20G<56 184 397 525>
VStem: 56 128<-192 519> 169 15<76 140> 169 7<145 221> 397 14<97 129> 515 10<0 108>
AnchorPoint: "AccentCenter" 289 686 basechar 0
LayerCount: 2
Fore
SplineSet
515 108 m 1x63
 580 108 l 1
 580 0 l 1
 515 0 l 1
 515 108 l 1x63
397 307 m 1
 525 307 l 1
 525 0 l 1
 440 0 l 1
 397 97 l 1
 397 307 l 1
169 140 m 1xab
 176 221 l 1xa7
 176 145 200 96 286 96 c 0
 355 96 397 155 397 222 c 1
 397 519 l 1
 525 519 l 1
 525 273 l 1
 411 129 l 1
 411 38 356 -8 283 -8 c 0
 190 -8 169 76 169 140 c 1xab
56 -192 m 1x33
 56 519 l 1
 184 519 l 1
 184 -192 l 1
 56 -192 l 1x33
EndSplineSet
Validated: 5
EndChar

StartChar: paragraph
Encoding: 182 182 167
Width: 543
Flags: HW
HStem: 0 60<444 511> 648 59<444 511>
VStem: 40 260<455.738 629.145> 228 72<0 372> 372 139<0 60 648 707>
LayerCount: 2
Fore
SplineSet
40 547 m 0xe8
 40 641 111 707 212 707 c 0
 300 707 l 1xd8
 300 544 l 1xe8
 300 372 l 1xd8
 300 372 215 372 212 372 c 0
 108 372 40 441 40 547 c 0xe8
228 372 m 1
 300 372 l 1
 300 0 l 1
 228 0 l 1
 228 372 l 1
444 60 m 1
 511 60 l 1
 511 0 l 1
 444 0 l 1
 444 60 l 1
444 707 m 1
 511 707 l 1
 511 648 l 1
 444 648 l 1
 444 707 l 1
372 707 m 1
 444 707 l 1
 444 0 l 1
 372 0 l 1
 372 707 l 1
EndSplineSet
Validated: 5
EndChar

StartChar: exclamdown
Encoding: 161 161 168
Width: 274
VWidth: 1048
Flags: HW
HStem: 381 146<85.5 188.5>
VStem: 64 146<-196 179.125 402.5 505.5> 73 128<-147.016 275>
LayerCount: 2
Fore
SplineSet
210 454 m 4xc0
 210 414 177 381 137 381 c 4
 97 381 64 414 64 454 c 4
 64 494 97 527 137 527 c 4
 177 527 210 494 210 454 c 4xc0
209 -196 m 5
 65 -196 l 5
 73 275 l 5
 201 275 l 5xa0
 209 -196 l 5
EndSplineSet
Validated: 1
EndChar

StartChar: questiondown
Encoding: 191 191 169
Width: 534
VWidth: 1048
Flags: HW
HStem: -213 108<224.419 372.77> 381 146<228.5 331.5>
VStem: 64 128<-75.1523 63.8375> 207 146<402.5 505.5> 233 120<211.448 318.323>
LayerCount: 2
Fore
SplineSet
353 454 m 4xf0
 353 414 320 381 280 381 c 4
 240 381 207 414 207 454 c 4
 207 494 240 527 280 527 c 4
 320 527 353 494 353 454 c 4xf0
504 -93 m 5
 470 -157 404 -213 283 -213 c 5
 154 -213 64 -145 64 -22 c 5
 64 64 101 121 165 166 c 4
 219 204 233 244 233 282 c 5
 233 295 231 304 228 318 c 5
 347 335 l 5
 351 313 353 298 353 280 c 5xe8
 353 205 327 158 270 117 c 4
 217 79 192 48 192 -14 c 5
 192 -75 236 -105 296 -105 c 5
 350 -105 397 -79 416 -31 c 5
 504 -93 l 5
EndSplineSet
Validated: 1
EndChar

StartChar: cent
Encoding: 162 162 172
Width: 506
VWidth: 1048
Flags: HW
HStem: -8 104<163 352.497> 423 104<164 353.597>
VStem: 30 128<150.322 363.071> 219 112<-94 618>
LayerCount: 2
Fore
SplineSet
219 618 m 5
 331 618 l 5
 331 -94 l 5
 219 -94 l 5
 219 618 l 5
282 423 m 0
 199 423 158 364 158 254 c 0
 158 142 202 96 282 96 c 0
 333 96 365 113 390 171 c 0
 488 118 l 0
 446 30 361 -8 278 -8 c 0
 124 -8 30 89 30 259 c 0
 30 431 129 527 288 527 c 0
 368 527 446 486 484 405 c 1
 394 353 l 1
 370 401 327 423 282 423 c 0
EndSplineSet
Validated: 5
EndChar

StartChar: onequarter
Encoding: 188 188 173
Width: 800
VWidth: 1048
Flags: HW
HStem: 31 64<415 753> 373 64<43 137 217 297>
VStem: 137 80<437 694> 615 76<-64 192>
LayerCount: 2
Fore
SplineSet
577 388 m 1
 661 388 l 1
 497 95 l 5
 415 95 l 5
 577 388 l 1
415 31 m 1
 415 95 l 5
 753 95 l 5
 753 31 l 1
 415 31 l 1
615 -64 m 1
 615 192 l 1
 691 192 l 1
 691 -64 l 1
 615 -64 l 1
473 567 m 1
 539 527 l 1
 329 187 l 1
 265 227 l 1
 473 567 l 1
43 373 m 1
 43 437 l 1
 297 437 l 1
 297 373 l 1
 43 373 l 1
137 694 m 1
 37 640 l 1
 37 713 l 1
 147 772 l 1
 217 772 l 1
 217 437 l 1
 137 437 l 1
 137 694 l 1
EndSplineSet
Validated: 5
EndChar

StartChar: onehalf
Encoding: 189 189 174
Width: 800
VWidth: 1048
Flags: HW
HStem: -64 64<580 758> 316 66<545.585 659.929> 373 64<40 134 214 294>
VStem: 134 80<437 694> 674 80<178.24 300.834>
LayerCount: 2
Fore
SplineSet
630 150 m 1xd8
 662 186 674 212 674 252 c 0
 674 286 651 316 612 316 c 0
 573 316 552 304 532 280 c 1
 494 319 l 1
 510 340 544 382 616 382 c 0
 701 382 754 319 754 250 c 0
 754 206 730 163 698 128 c 0
 697 127 580 1 580 0 c 5
 758 0 l 5
 758 -64 l 1
 498 -64 l 1
 498 4 l 5
 498 5 630 150 630 150 c 1xd8
470 567 m 1
 536 527 l 1
 326 187 l 1
 262 227 l 1
 470 567 l 1
40 373 m 1xb8
 40 437 l 1
 294 437 l 1
 294 373 l 1
 40 373 l 1xb8
134 694 m 1
 34 640 l 1
 34 713 l 1
 144 772 l 1
 214 772 l 1
 214 437 l 1
 134 437 l 1
 134 694 l 1
EndSplineSet
Validated: 5
EndChar

StartChar: threequarters
Encoding: 190 190 175
Width: 800
VWidth: 1048
Flags: HW
HStem: 31 64<415 753> 361 64<109.004 223.357> 558 57<199 226.877> 708 64<63 197>
VStem: 240 80<441.808 545.22> 613 80<-64 192>
LayerCount: 2
Fore
SplineSet
66 772 m 1
 299 772 l 0
 299 719 l 0
 202 615 l 1
 247 615 323 583 323 489 c 0
 323 412 260 361 171 361 c 0
 103 361 60 397 37 448 c 1
 89 480 l 1
 104 450 127 425 170 425 c 0
 220 425 243 455 243 490 c 0
 243 533 222 558 177 558 c 2
 125 558 l 1
 125 620 l 1
 200 708 l 1
 66 708 l 1
 66 772 l 1
577 388 m 1
 661 388 l 1
 497 95 l 1
 415 95 l 1
 577 388 l 1
415 31 m 1
 415 95 l 1
 753 95 l 1
 753 31 l 1
 415 31 l 1
613 -64 m 1
 613 192 l 1
 693 192 l 1
 693 -64 l 1
 613 -64 l 1
473 567 m 1
 539 527 l 1
 329 187 l 1
 265 227 l 1
 473 567 l 1
EndSplineSet
Validated: 5
EndChar
